<?xml version="1.0" encoding="UTF-8"?>
<svg id="Layer_1" data-name="Layer 1" xmlns="http://www.w3.org/2000/svg" viewBox="0 0 500 199.5">
  <defs>
    <style>
      .cls-1 {
        fill: #f3802e;
      }
    </style>
  </defs>
  <path class="cls-1" d="M406.2,80.93c-2.3-7.74-7.79-13.63-14.66-17.77-10.8-6.52-22.89-8.99-35.55-9.05-11.02-.05-25.56-4.14-27.47-14.83-1.74-9.71,7.51-17.98,18.95-19.2,4.61-.49,9,.04,13.59.48,6.55.63,12.1,4.03,15.46,9.66,4.98,8.35,2.4,12.96,6.5,12.94l18.84-.11c1.82-17.44-10.04-34.63-26.32-39.91-4.94-1.6-9.95-2-14.91-2.69l-1.65-.22h-9.5l-2,.18c-10.02.94-19.69,4.19-28.27,10.03-6.88,4.82-11.79,11.37-14.06,19.51l2.27,24.28c6.03,10.95,16.89,17.95,29.26,19.34l25.99,2.93c5.83.66,11.38,2.06,16.09,5.36,4.44,3.11,5.93,8.12,3.96,13.11-2.04,5.19-6.06,8.98-10.83,11.65-6.52,3.65-13.06,4.21-20.47,4.25-13.76.09-25.78-9.85-26.66-23.98l-14.61.12,3.57,28.21c4.16,7.31,13.36,11.53,21.24,13.34l17.55,2.95c15.1,1.77,29.23-2.93,40.95-12.3,11.51-9.2,17-23.89,12.72-38.28Z"/>
  <path class="cls-1" d="M21.71,116.54c14.57,14.45,36.85,20.3,55.13,10.02,13.23-7.44,22.06-19.97,25.23-34.77,1.36-6.35,1.91-12.34,1.16-18.77-.48-4.08-.67-8.04-.79-12.17l-43.43.11c-.17,5.23-.47,9.87.09,14.73.46,3.99,10.17,4.42,15.93,4.52,3.16.05,5.72,2.07,5.45,5.65-.59,7.76-3.4,16-9.35,21.51-5.46,5.05-14,6.52-21,4.79-10.62-2.61-19.27-18.02-21.81-29.24-2.76-12.17-2.61-24.61.76-36.6,1.93-6.86,5.81-12.44,9.95-18,7.23-9.7,20.19-11.67,29.93-4.52,6.15,4.51,10.14,10.82,10.84,18.58.11,1.25,1.12,2.13,2.41,2.13,6.2-.02,12.21.21,18.44-.13.97-.05,1.08-1.85,1-2.7C99.62,21.11,81.86,3.39,62,.23h-11C30.38,3.89,13.61,18.72,7.18,38.93c-5.21,16.39-5.25,33.42-1.02,50.08,2.71,10.68,7.75,19.78,15.55,27.52Z"/>
  <path class="cls-1" d="M130.4,147.61H2.13c-1.08,0-1.68,1.33-2.13,1.61v2.05c.49.21,1.09,1.5,2.14,1.5h128.25c1.58.01,2.22-1.38,2.32-2.32.13-1.18-.57-2.84-2.32-2.84Z"/>
  <path class="cls-1" d="M497.86,147.62l-127.77-.02c-1.82,0-2.72,1.04-2.8,2.38-.1,1.54.82,2.82,2.8,2.82l127.79-.02c1.07-.18,1.57-1.16,2.12-1.5v-2.05c-.46-.29-1.05-1.6-2.13-1.6Z"/>
  <path class="cls-1" d="M297.73,2.35h-37.04s-2.54,12.61-2.54,12.61l-9.18,47.67c-.36,1.88-1.03,3.1-2.77,3.32-1.46.19-2.91-.43-3.44-2.02l-5.14-27.35c-2.61-11.47-4.76-22.62-6.76-34.25l-37.18.02-3.81,38.36-3.45,40.94,13.08,48.97c1.15.4,2.24.31,3.47-.13l7.11-78.7c.52-5.75.15-13.46,3.28-13.89,2.23-.31,3.44,2.63,3.99,5.96,1.95,11.81,4.07,23.09,6.71,34.83l9.99,51.78c7.96.67,15.42.65,23.34,0l9.86-50.46,7.53-39.39c.32-1.67,1.47-2.78,2.94-2.76,1.53.03,2.56,1.11,2.76,3.18l4.1,43.65,1.84,22.53c.87,7.92,1.58,15.45,1.94,23.51l21.57.2-3.94-38.28-8.28-90.31Z"/>
  <path class="cls-1" d="M93.8,118.98l-3.23,11.98,18.92-.22c1.23-.01,2.19-.89,2.5-2.1l9.7-37.9c.79-3.09,3.45-4.56,6.32-4.56l30.46.07c2.46,0,4.23,1.42,4.79,3.79l10.44,40.5c7.04.48,13.7.43,20.92.44l-20.58-78.25-13.35-50.31-34.58-.05c-1.2,0-2.02.7-2.09,1.84l-6,22.53-10.61,40.97c3.03,18.46-1.62,37.1-13.6,51.27ZM131.82,53.57c1.59-7.89,3.51-15.51,5.8-23.17.65-2.18,2.72-3.62,4.67-3.69,1.87-.07,4.64,1.3,5.23,3.55l6.29,24.13c.67,2.55-1.21,5.23-4.03,5.23h-13.23c-1.58,0-3.13-.7-3.91-1.77-.8-1.08-1.13-2.71-.81-4.27Z"/>
  <path class="cls-1" d="M401.26,118.48l-6.12,5.86c-1.3,1.65-1.15,4.35-2.02,6.6l18.87-.18c1.19-.01,2.21-.9,2.52-2.1l9.63-37.73c.77-3.02,3.26-4.76,6.37-4.75l30.45.08c2.58,0,4.2,1.38,4.82,3.79l10.55,40.6,20.8.29-20.78-79.02-13.14-49.51h-36.07s-6.71,24.75-6.71,24.75l-12.06,46.58c7.7,13.82,3.89,34.22-7.11,44.75ZM434.34,53.67l5.79-23.24c.54-2.19,2.73-3.65,4.67-3.73,1.59-.07,4.52,1.17,5.08,3.29l6.44,24.4c.62,2.33-.99,5.15-3.61,5.16l-13.67.07c-1.52,0-3.06-.75-3.73-1.55-.97-1.17-1.36-2.85-.97-4.41Z"/>
  <path class="cls-1" d="M344.96,181.26c-5.91-3.17-13.86-.72-14.36-5.07-.35-3.03,2.94-4.04,5.35-4.04,3.54,0,5.86,1.8,6.11,5.47,2.15.31,4.22.44,6.21-.09.62-5.73-3.52-10.36-9.05-11.03-3.55-.44-6.9-.17-10.08,1.33-3.83,1.8-6.1,5.36-5.65,9.6.4,3.72,3.5,7.06,7.66,7.64l9.13,1.27c1.09.15,2.04,1.04,2.26,1.71.78,2.37-2.17,4.97-6.86,5-3.38.02-5.84-2.28-6.14-5.72l-5.88.15c-.86,5.33,2.87,9.91,7.92,11.12,5.85,1.4,11.88.8,16-4.05,1.9-2.24,2.44-4.95,1.87-7.91-.38-1.97-2.15-4.14-4.49-5.39Z"/>
  <path class="cls-1" d="M293.99,166.86l-13.1.11-.06,32.24,11.09-.08c3.49-.03,6.42-1.69,8.85-4.44,6.2-7.11,6.42-17.27,1.03-24.76-2.29-1.74-4.89-3.1-7.82-3.08ZM297.21,188.1c-2.05,3.57-5.83,5.13-9.46,3.86l.04-18.33c2.57-.48,4.99-.56,7.41,0,3.33.77,5.1,9.12,2.02,14.47Z"/>
  <path class="cls-1" d="M207.65,166.35c-3.7-.31-7.12,1.14-9.81,3.78-6.78,6.68-6.79,22.29,3.28,27.69,5.32,2.85,11.18,1.35,14.82-3.26,5.22-6.62,5.33-16.23.37-23.08-2.19-3.02-5.45-4.86-8.66-5.12ZM206.26,193.56c-5-.14-9.21-11.54-3.69-19.14,1.01-1.39,2.33-2.23,3.7-2.31,1.58-.09,3.05.81,4.16,2.31,5.5,7.5,1.34,19.29-4.17,19.14Z"/>
  <path class="cls-1" d="M250.68,166.33c-3.78-.22-7.23,1.43-9.89,4.24-6.54,6.89-6.05,22.55,4.07,27.46,5.63,2.73,11.47.78,14.95-4.11,4.68-6.58,4.63-15.75-.09-22.35-2.26-3.16-5.62-5.04-9.05-5.24ZM249.75,193.57c-1.33.02-2.71-.71-3.67-2.02-5.77-7.84-1.61-19.3,3.67-19.44,1.64-.04,2.98.88,4.07,2.41,5.38,7.58,1.33,18.98-4.06,19.05Z"/>
  <path class="cls-1" d="M441.97,168.97c0-1.26-.97-2.6-2.57-2.6l-28.87-.04c-1.76,0-2.92,1.14-2.91,2.64.05,3.97,5.87,1.3,5.89,5.51.03,4.22-5.91,1.41-5.88,5.49,0,1.49,1.15,2.67,2.9,2.67l29.14-.08c1.78,0,2.47-1.89,2.27-3-.59-3.26-5.31-1.35-5.27-5.02.05-4.1,5.29-1.82,5.3-5.57ZM429.21,177.16l-8.63-.04c-1.39,0-1.8-1.71-1.79-2.65,0-1.03.41-2.65,1.78-2.69l7.43-.2c1.69-.05,2.88.61,3.31,2.05.36,1.2-.12,3.54-2.1,3.53Z"/>
  <path class="cls-1" d="M492.51,181.2h-23.21c-1.62,0-2.71-1.25-2.71-2.51v-4.4c0-1.66,1.24-2.7,2.9-2.7h23.48c1.65,0,2.61-1.28,2.61-2.62,0-1.35-.94-2.67-2.61-2.68h-28.93c-1.53,0-2.77,1.11-2.78,2.61l-.05,14.78c0,1.66,1.14,2.85,2.85,2.85h29.22c1.64-.41,2.47-1.67,2.3-3.05-.19-1.51-1.36-2.29-3.07-2.29Z"/>
  <path class="cls-1" d="M152.53,167.09l-.03,32.03,6.98.04.05-13.39,12.06-.26c.32-2.5.18-4.55-.16-6.87h-11.87s0-4.53,0-4.53l14.1-.1c.46-2.47.33-4.59-.07-6.93h-21.05Z"/>
  <path class="cls-1" d="M4.39,186.32l.09,12.5,26.06-.07-.09-12.54-26.06.12ZM24,193.73h-13.01c-.91,0-1.56-.55-1.56-1.26,0-.72.64-1.21,1.56-1.21h13c.96,0,1.47.49,1.47,1.21,0,.72-.52,1.26-1.46,1.26Z"/>
  <path class="cls-1" d="M70.88,193.29c-4.11-2.47-7.55-6.73-8.27-11.64-.76-5.17-.08-10.15-.2-15.24h-5.39c-.09,4.91.48,9.74-.12,14.8-.6,5.06-4.04,9.54-8.31,12.03-1.54.9-2.15,2.07-1.52,3.64,1.5,3.7,7.01-.3,10.65-4.93,2.9-3.7,4.86,2.85,10.97,6.07,1.46.77,3.18.18,3.7-1.14.6-1.54,0-2.68-1.51-3.59Z"/>
  <path class="cls-1" d="M439.47,187.29h-29.45c-1.72.01-2.59,1.75-2.37,3.03.24,1.38,1.28,2.24,2.87,2.24h8.99c4.19,0,1.03,6.15,5.25,6.26,4.15.11,1.26-6.23,5.22-6.25l9.42-.06c1.6,0,2.56-1.24,2.57-2.55,0-1.31-.85-2.68-2.5-2.67Z"/>
  <path class="cls-1" d="M80.29,179.04l-.16-9.83c-.03-1.57-1-2.64-2.45-2.77-1.04-.09-2.66.78-2.66,2.29v26.97c0,1.52,1.61,2.39,2.66,2.3,1.43-.13,2.42-1.19,2.46-2.77l.15-7.34c.06-3.07,6.41-.68,7.56-3.12.55-1.16.39-2.45-.43-3.22-1.51-1.41-7.07.3-7.11-2.52Z"/>
  <path class="cls-1" d="M492.49,193.52l-28.5.03c-1.79,0-2.84,1.47-2.7,2.89.17,1.66,1.41,2.37,3.2,2.37h27.74c2.28,0,3.41-.97,3.33-2.86-.06-1.52-1.28-2.44-3.08-2.44Z"/>
  <path class="cls-1" d="M12.11,184.56c1.52,1,3.35,1.42,5.1.78l2.05-11.67-.13-6.64-15.98-.11c-.86,1.55-.75,3.55-.09,5.09l11.24.07-2.18,12.48Z"/>
  <path class="cls-1" d="M29.24,173.99l-.3-6.66c-1.58-.65-3.26-.68-4.95,0l.06,17.74c1.35.69,4.62,1,4.76-.35l.54-5.13,7.31-.62c.9-.84.64-3.81-.01-4.69l-7.4-.28Z"/>
</svg>